<svg width="34" height="34" viewBox="0 0 34 34" fill="none" xmlns="http://www.w3.org/2000/svg">
<g clip-path="url(#clip0_418_465)">
<path d="M25 0H9C4.02944 0 0 4.02944 0 9V25C0 29.9706 4.02944 34 9 34H25C29.9706 34 34 29.9706 34 25V9C34 4.02944 29.9706 0 25 0Z" fill="#002864"/>
<path d="M12.7034 8.2C12.7034 6.43269 11.2028 5 9.35172 5C7.50062 5 6 6.43269 6 8.2C6 9.96731 7.50062 11.4 9.35172 11.4C11.2028 11.4 12.7034 9.96731 12.7034 8.2Z" fill="white"/>
<path d="M20.1517 8.2C20.1517 6.43269 18.6511 5 16.8 5C14.9489 5 13.4483 6.43269 13.4483 8.2C13.4483 9.96731 14.9489 11.4 16.8 11.4C18.6511 11.4 20.1517 9.96731 20.1517 8.2Z" fill="white"/>
<path d="M27.6 8.2C27.6 6.43269 26.0994 5 24.2483 5C22.3972 5 20.8966 6.43269 20.8966 8.2C20.8966 9.96731 22.3972 11.4 24.2483 11.4C26.0994 11.4 27.6 9.96731 27.6 8.2Z" fill="white"/>
<path d="M12.7034 17C12.7034 15.2327 11.2028 13.8 9.35172 13.8C7.50062 13.8 6 15.2327 6 17C6 18.7673 7.50062 20.2 9.35172 20.2C11.2028 20.2 12.7034 18.7673 12.7034 17Z" fill="white"/>
<path d="M20.1517 17C20.1517 15.2327 18.6511 13.8 16.8 13.8C14.9489 13.8 13.4483 15.2327 13.4483 17C13.4483 18.7673 14.9489 20.2 16.8 20.2C18.6511 20.2 20.1517 18.7673 20.1517 17Z" fill="white"/>
<path d="M27.6 17C27.6 15.2327 26.0994 13.8 24.2483 13.8C22.3972 13.8 20.8966 15.2327 20.8966 17C20.8966 18.7673 22.3972 20.2 24.2483 20.2C26.0994 20.2 27.6 18.7673 27.6 17Z" fill="#999999"/>
<path d="M12.7034 25.8C12.7034 24.0327 11.2028 22.6 9.35172 22.6C7.50062 22.6 6 24.0327 6 25.8C6 27.5673 7.50062 29 9.35172 29C11.2028 29 12.7034 27.5673 12.7034 25.8Z" fill="white"/>
<path d="M20.1517 25.8C20.1517 24.0327 18.6511 22.6 16.8 22.6C14.9489 22.6 13.4483 24.0327 13.4483 25.8C13.4483 27.5673 14.9489 29 16.8 29C18.6511 29 20.1517 27.5673 20.1517 25.8Z" fill="#999999"/>
<path d="M27.6 25.8C27.6 24.0327 26.0994 22.6 24.2483 22.6C22.3972 22.6 20.8966 24.0327 20.8966 25.8C20.8966 27.5673 22.3972 29 24.2483 29C26.0994 29 27.6 27.5673 27.6 25.8Z" fill="#999999"/>
</g>
<defs>
<clipPath id="clip0_418_465">
<rect width="34" height="34" fill="white"/>
</clipPath>
</defs>
</svg>
